<svg xmlns="http://www.w3.org/2000/svg" xmlns:xlink="http://www.w3.org/1999/xlink" width="150" zoomAndPan="magnify" viewBox="0 0 112.5 44.999999" height="60" preserveAspectRatio="xMidYMid meet" version="1.0"><defs><g/><clipPath id="b2983e63d4"><path d="M 0 0.0976562 L 112.003906 0.0976562 L 112.003906 44.898438 L 0 44.898438 Z M 0 0.0976562 " clip-rule="nonzero"/></clipPath><clipPath id="a4df143fb1"><rect x="0" width="83" y="0" height="10"/></clipPath><clipPath id="c618e35ce1"><path d="M 1 0.222656 L 12 0.222656 L 12 18 L 1 18 Z M 1 0.222656 " clip-rule="nonzero"/></clipPath><clipPath id="17876fc3de"><path d="M 14 0.222656 L 23 0.222656 L 23 18 L 14 18 Z M 14 0.222656 " clip-rule="nonzero"/></clipPath><clipPath id="f6b6d50562"><path d="M 24 0.222656 L 33 0.222656 L 33 18 L 24 18 Z M 24 0.222656 " clip-rule="nonzero"/></clipPath><clipPath id="9542212843"><path d="M 34 0.222656 L 47 0.222656 L 47 18 L 34 18 Z M 34 0.222656 " clip-rule="nonzero"/></clipPath><clipPath id="4b956fffed"><path d="M 55 0.222656 L 67 0.222656 L 67 18 L 55 18 Z M 55 0.222656 " clip-rule="nonzero"/></clipPath><clipPath id="668068510e"><path d="M 68 0.222656 L 79 0.222656 L 79 18 L 68 18 Z M 68 0.222656 " clip-rule="nonzero"/></clipPath><clipPath id="c00432b21c"><rect x="0" width="81" y="0" height="20"/></clipPath></defs><g clip-path="url(#b2983e63d4)"><path fill="#ffffff" d="M 0 0.0976562 L 112.003906 0.0976562 L 112.003906 44.902344 L 0 44.902344 Z M 0 0.0976562 " fill-opacity="1" fill-rule="nonzero"/><path fill="#f1f9f4" d="M 0 0.0976562 L 112.003906 0.0976562 L 112.003906 44.902344 L 0 44.902344 Z M 0 0.0976562 " fill-opacity="1" fill-rule="nonzero"/></g><g transform="matrix(1, 0, 0, 1, 16, 30)"><g clip-path="url(#a4df143fb1)"><g fill="#214e34" fill-opacity="1"><g transform="translate(0.661059, 7.174558)"><g><path d="M 5.203125 -3.484375 L 4.046875 -3.484375 C 4.003906 -3.773438 3.878906 -4.003906 3.671875 -4.171875 C 3.460938 -4.347656 3.203125 -4.4375 2.890625 -4.4375 C 2.472656 -4.4375 2.140625 -4.28125 1.890625 -3.96875 C 1.640625 -3.664062 1.515625 -3.238281 1.515625 -2.6875 C 1.515625 -2.113281 1.640625 -1.675781 1.890625 -1.375 C 2.148438 -1.082031 2.484375 -0.9375 2.890625 -0.9375 C 3.191406 -0.9375 3.445312 -1.015625 3.65625 -1.171875 C 3.863281 -1.328125 3.992188 -1.546875 4.046875 -1.828125 L 5.203125 -1.828125 C 5.160156 -1.492188 5.039062 -1.179688 4.84375 -0.890625 C 4.65625 -0.609375 4.394531 -0.375 4.0625 -0.1875 C 3.726562 -0.0078125 3.332031 0.078125 2.875 0.078125 C 2.394531 0.078125 1.96875 -0.03125 1.59375 -0.25 C 1.21875 -0.46875 0.921875 -0.78125 0.703125 -1.1875 C 0.484375 -1.601562 0.375 -2.101562 0.375 -2.6875 C 0.375 -3.269531 0.484375 -3.765625 0.703125 -4.171875 C 0.921875 -4.585938 1.21875 -4.898438 1.59375 -5.109375 C 1.96875 -5.328125 2.394531 -5.4375 2.875 -5.4375 C 3.28125 -5.4375 3.648438 -5.359375 3.984375 -5.203125 C 4.316406 -5.054688 4.585938 -4.835938 4.796875 -4.546875 C 5.015625 -4.253906 5.148438 -3.898438 5.203125 -3.484375 Z M 5.203125 -3.484375 "/></g></g></g><g fill="#214e34" fill-opacity="1"><g transform="translate(9.007866, 7.174558)"><g><path d="M 5.390625 -2.6875 C 5.390625 -2.09375 5.28125 -1.59375 5.0625 -1.1875 C 4.84375 -0.78125 4.539062 -0.46875 4.15625 -0.25 C 3.78125 -0.03125 3.359375 0.078125 2.890625 0.078125 C 2.410156 0.078125 1.976562 -0.03125 1.59375 -0.25 C 1.21875 -0.46875 0.921875 -0.78125 0.703125 -1.1875 C 0.484375 -1.601562 0.375 -2.101562 0.375 -2.6875 C 0.375 -3.269531 0.484375 -3.765625 0.703125 -4.171875 C 0.921875 -4.585938 1.21875 -4.898438 1.59375 -5.109375 C 1.976562 -5.328125 2.410156 -5.4375 2.890625 -5.4375 C 3.359375 -5.4375 3.78125 -5.328125 4.15625 -5.109375 C 4.539062 -4.898438 4.84375 -4.585938 5.0625 -4.171875 C 5.28125 -3.765625 5.390625 -3.269531 5.390625 -2.6875 Z M 4.25 -2.6875 C 4.25 -3.25 4.125 -3.679688 3.875 -3.984375 C 3.625 -4.285156 3.296875 -4.4375 2.890625 -4.4375 C 2.472656 -4.4375 2.140625 -4.285156 1.890625 -3.984375 C 1.640625 -3.679688 1.515625 -3.25 1.515625 -2.6875 C 1.515625 -2.113281 1.640625 -1.675781 1.890625 -1.375 C 2.140625 -1.082031 2.472656 -0.9375 2.890625 -0.9375 C 3.296875 -0.9375 3.625 -1.082031 3.875 -1.375 C 4.125 -1.675781 4.25 -2.113281 4.25 -2.6875 Z M 4.25 -2.6875 "/></g></g></g><g fill="#214e34" fill-opacity="1"><g transform="translate(17.574755, 7.174558)"><g><path d="M 0.46875 0 L 0.46875 -5.359375 L 4.015625 -5.359375 L 4.015625 -4.421875 L 1.59375 -4.421875 L 1.59375 -3.15625 L 3.78125 -3.15625 L 3.78125 -2.21875 L 1.59375 -2.21875 L 1.59375 0 Z M 0.46875 0 "/></g></g></g><g fill="#214e34" fill-opacity="1"><g transform="translate(24.687531, 7.174558)"><g><path d="M 0.46875 0 L 0.46875 -5.359375 L 4.015625 -5.359375 L 4.015625 -4.421875 L 1.59375 -4.421875 L 1.59375 -3.15625 L 3.78125 -3.15625 L 3.78125 -2.21875 L 1.59375 -2.21875 L 1.59375 0 Z M 0.46875 0 "/></g></g></g><g fill="#214e34" fill-opacity="1"><g transform="translate(31.800307, 7.174558)"><g><path d="M 0.46875 0 L 0.46875 -5.359375 L 4.078125 -5.359375 L 4.078125 -4.421875 L 1.59375 -4.421875 L 1.59375 -3.15625 L 3.890625 -3.15625 L 3.890625 -2.21875 L 1.59375 -2.21875 L 1.59375 -0.9375 L 4.09375 -0.9375 L 4.09375 0 Z M 0.46875 0 "/></g></g></g><g fill="#214e34" fill-opacity="1"><g transform="translate(39.117449, 7.174558)"><g><path d="M 0.46875 0 L 0.46875 -5.359375 L 4.078125 -5.359375 L 4.078125 -4.421875 L 1.59375 -4.421875 L 1.59375 -3.15625 L 3.890625 -3.15625 L 3.890625 -2.21875 L 1.59375 -2.21875 L 1.59375 -0.9375 L 4.09375 -0.9375 L 4.09375 0 Z M 0.46875 0 "/></g></g></g><g fill="#214e34" fill-opacity="1"><g transform="translate(46.43459, 7.174558)"><g/></g></g><g fill="#214e34" fill-opacity="1"><g transform="translate(50.943073, 7.174558)"><g><path d="M 5.203125 -3.484375 L 4.046875 -3.484375 C 4.003906 -3.773438 3.878906 -4.003906 3.671875 -4.171875 C 3.460938 -4.347656 3.203125 -4.4375 2.890625 -4.4375 C 2.472656 -4.4375 2.140625 -4.28125 1.890625 -3.96875 C 1.640625 -3.664062 1.515625 -3.238281 1.515625 -2.6875 C 1.515625 -2.113281 1.640625 -1.675781 1.890625 -1.375 C 2.148438 -1.082031 2.484375 -0.9375 2.890625 -0.9375 C 3.191406 -0.9375 3.445312 -1.015625 3.65625 -1.171875 C 3.863281 -1.328125 3.992188 -1.546875 4.046875 -1.828125 L 5.203125 -1.828125 C 5.160156 -1.492188 5.039062 -1.179688 4.84375 -0.890625 C 4.65625 -0.609375 4.394531 -0.375 4.0625 -0.1875 C 3.726562 -0.0078125 3.332031 0.078125 2.875 0.078125 C 2.394531 0.078125 1.96875 -0.03125 1.59375 -0.25 C 1.21875 -0.46875 0.921875 -0.78125 0.703125 -1.1875 C 0.484375 -1.601562 0.375 -2.101562 0.375 -2.6875 C 0.375 -3.269531 0.484375 -3.765625 0.703125 -4.171875 C 0.921875 -4.585938 1.21875 -4.898438 1.59375 -5.109375 C 1.96875 -5.328125 2.394531 -5.4375 2.875 -5.4375 C 3.28125 -5.4375 3.648438 -5.359375 3.984375 -5.203125 C 4.316406 -5.054688 4.585938 -4.835938 4.796875 -4.546875 C 5.015625 -4.253906 5.148438 -3.898438 5.203125 -3.484375 Z M 5.203125 -3.484375 "/></g></g></g><g fill="#214e34" fill-opacity="1"><g transform="translate(59.28988, 7.174558)"><g><path d="M 0.46875 0 L 0.46875 -5.359375 L 1.59375 -5.359375 L 1.59375 -0.9375 L 3.90625 -0.9375 L 3.90625 0 Z M 0.46875 0 "/></g></g></g><g fill="#214e34" fill-opacity="1"><g transform="translate(66.274277, 7.174558)"><g><path d="M 3.78125 -5.359375 L 4.90625 -5.359375 L 4.90625 -1.8125 C 4.90625 -1.40625 4.8125 -1.0625 4.625 -0.78125 C 4.4375 -0.5 4.175781 -0.285156 3.84375 -0.140625 C 3.507812 0.00390625 3.125 0.078125 2.6875 0.078125 C 2.257812 0.078125 1.875 0.00390625 1.53125 -0.140625 C 1.195312 -0.285156 0.9375 -0.5 0.75 -0.78125 C 0.5625 -1.0625 0.46875 -1.40625 0.46875 -1.8125 L 0.46875 -5.359375 L 1.59375 -5.359375 L 1.59375 -1.859375 C 1.59375 -1.566406 1.695312 -1.335938 1.90625 -1.171875 C 2.113281 -1.015625 2.375 -0.9375 2.6875 -0.9375 C 3.007812 -0.9375 3.269531 -1.015625 3.46875 -1.171875 C 3.675781 -1.335938 3.78125 -1.566406 3.78125 -1.859375 Z M 3.78125 -5.359375 "/></g></g></g><g fill="#214e34" fill-opacity="1"><g transform="translate(74.453403, 7.174558)"><g><path d="M 0.46875 0 L 0.46875 -5.359375 L 2.609375 -5.359375 C 3.203125 -5.359375 3.644531 -5.226562 3.9375 -4.96875 C 4.238281 -4.71875 4.390625 -4.390625 4.390625 -3.984375 C 4.390625 -3.671875 4.296875 -3.414062 4.109375 -3.21875 C 3.929688 -3.03125 3.703125 -2.90625 3.421875 -2.84375 L 3.421875 -2.78125 C 3.628906 -2.769531 3.820312 -2.710938 4 -2.609375 C 4.175781 -2.503906 4.320312 -2.351562 4.4375 -2.15625 C 4.550781 -1.96875 4.609375 -1.742188 4.609375 -1.484375 C 4.609375 -1.203125 4.535156 -0.945312 4.390625 -0.71875 C 4.253906 -0.5 4.046875 -0.320312 3.765625 -0.1875 C 3.492188 -0.0625 3.160156 0 2.765625 0 Z M 1.59375 -0.921875 L 2.53125 -0.921875 C 2.84375 -0.921875 3.070312 -0.984375 3.21875 -1.109375 C 3.363281 -1.234375 3.4375 -1.394531 3.4375 -1.59375 C 3.4375 -1.8125 3.351562 -1.992188 3.1875 -2.140625 C 3.03125 -2.285156 2.816406 -2.359375 2.546875 -2.359375 L 1.59375 -2.359375 Z M 1.59375 -3.125 L 2.4375 -3.125 C 2.675781 -3.125 2.867188 -3.179688 3.015625 -3.296875 C 3.171875 -3.421875 3.25 -3.585938 3.25 -3.796875 C 3.25 -3.992188 3.179688 -4.148438 3.046875 -4.265625 C 2.910156 -4.390625 2.71875 -4.453125 2.46875 -4.453125 L 1.59375 -4.453125 Z M 1.59375 -3.125 "/></g></g></g></g></g><g transform="matrix(1, 0, 0, 1, 16, 8)"><g clip-path="url(#c00432b21c)"><g clip-path="url(#c618e35ce1)"><g fill="#214e34" fill-opacity="1"><g transform="translate(0.107294, 17.604338)"><g><path d="M 3.75 -16.890625 C 5 -16.890625 6.125 -16.664062 7.125 -16.21875 C 8.125 -15.78125 8.976562 -15.179688 9.6875 -14.421875 C 10.375 -13.660156 10.910156 -12.769531 11.296875 -11.75 C 11.660156 -10.71875 11.84375 -9.617188 11.84375 -8.453125 C 11.84375 -7.285156 11.660156 -6.195312 11.296875 -5.1875 C 10.910156 -4.15625 10.375 -3.253906 9.6875 -2.484375 C 8.976562 -1.722656 8.125 -1.117188 7.125 -0.671875 C 6.125 -0.222656 5 0 3.75 0 L 1.828125 0 C 1.640625 0 1.484375 -0.0664062 1.359375 -0.203125 C 1.222656 -0.328125 1.15625 -0.484375 1.15625 -0.671875 L 1.15625 -16.21875 C 1.15625 -16.40625 1.222656 -16.566406 1.359375 -16.703125 C 1.484375 -16.828125 1.640625 -16.890625 1.828125 -16.890625 Z M 3.75 -3.3125 C 3.75 -3.101562 3.828125 -2.9375 3.984375 -2.8125 C 4.117188 -2.675781 4.296875 -2.625 4.515625 -2.65625 C 5.253906 -2.738281 5.90625 -2.953125 6.46875 -3.296875 C 7.039062 -3.628906 7.519531 -4.0625 7.90625 -4.59375 C 8.289062 -5.09375 8.582031 -5.679688 8.78125 -6.359375 C 8.96875 -7.023438 9.0625 -7.722656 9.0625 -8.453125 C 9.0625 -9.191406 8.96875 -9.898438 8.78125 -10.578125 C 8.582031 -11.234375 8.289062 -11.828125 7.90625 -12.359375 C 7.519531 -12.859375 7.039062 -13.28125 6.46875 -13.625 C 5.90625 -13.957031 5.253906 -14.171875 4.515625 -14.265625 C 4.296875 -14.296875 4.117188 -14.242188 3.984375 -14.109375 C 3.828125 -13.960938 3.75 -13.789062 3.75 -13.59375 Z M 3.75 -3.3125 "/></g></g></g></g><g clip-path="url(#17876fc3de)"><g fill="#214e34" fill-opacity="1"><g transform="translate(13.10099, 17.604338)"><g><path d="M 9.453125 -14.953125 C 9.453125 -14.773438 9.390625 -14.625 9.265625 -14.5 C 9.128906 -14.363281 8.96875 -14.296875 8.78125 -14.296875 L 4.421875 -14.296875 C 4.242188 -14.296875 4.09375 -14.234375 3.96875 -14.109375 C 3.820312 -13.960938 3.75 -13.800781 3.75 -13.625 L 3.75 -12.234375 C 3.75 -12.054688 3.820312 -11.90625 3.96875 -11.78125 C 4.09375 -11.632812 4.242188 -11.5625 4.421875 -11.5625 L 7.3125 -11.5625 C 7.507812 -11.5625 7.675781 -11.503906 7.8125 -11.390625 C 7.9375 -11.242188 8 -11.082031 8 -10.90625 L 8 -9.65625 C 8 -9.46875 7.9375 -9.304688 7.8125 -9.171875 C 7.675781 -9.035156 7.507812 -8.96875 7.3125 -8.96875 L 4.421875 -8.96875 C 4.242188 -8.96875 4.09375 -8.90625 3.96875 -8.78125 C 3.820312 -8.644531 3.75 -8.484375 3.75 -8.296875 L 3.75 -3.265625 C 3.75 -3.085938 3.820312 -2.9375 3.96875 -2.8125 C 4.09375 -2.675781 4.242188 -2.609375 4.421875 -2.609375 L 8.78125 -2.609375 C 8.96875 -2.609375 9.128906 -2.546875 9.265625 -2.421875 C 9.390625 -2.285156 9.453125 -2.125 9.453125 -1.9375 L 9.453125 -0.671875 C 9.453125 -0.484375 9.390625 -0.328125 9.265625 -0.203125 C 9.128906 -0.0664062 8.96875 0 8.78125 0 L 1.828125 0 C 1.640625 0 1.484375 -0.0664062 1.359375 -0.203125 C 1.222656 -0.328125 1.15625 -0.484375 1.15625 -0.671875 L 1.15625 -16.21875 C 1.15625 -16.40625 1.222656 -16.566406 1.359375 -16.703125 C 1.484375 -16.828125 1.640625 -16.890625 1.828125 -16.890625 L 8.78125 -16.890625 C 8.96875 -16.890625 9.128906 -16.828125 9.265625 -16.703125 C 9.390625 -16.566406 9.453125 -16.40625 9.453125 -16.21875 Z M 9.453125 -14.953125 "/></g></g></g></g><g clip-path="url(#f6b6d50562)"><g fill="#214e34" fill-opacity="1"><g transform="translate(23.698686, 17.604338)"><g><path d="M 8.6875 -3.875 C 8.6875 -3.144531 8.539062 -2.519531 8.25 -2 C 7.945312 -1.46875 7.5625 -1.039062 7.09375 -0.71875 C 6.625 -0.394531 6.101562 -0.175781 5.53125 -0.0625 C 4.957031 0.0390625 4.394531 0.0234375 3.84375 -0.109375 C 3.289062 -0.234375 2.785156 -0.484375 2.328125 -0.859375 C 1.847656 -1.210938 1.476562 -1.703125 1.21875 -2.328125 C 1.144531 -2.523438 1.160156 -2.71875 1.265625 -2.90625 C 1.359375 -3.09375 1.515625 -3.203125 1.734375 -3.234375 L 3.015625 -3.484375 C 3.304688 -3.523438 3.535156 -3.425781 3.703125 -3.1875 C 3.859375 -2.9375 4.078125 -2.773438 4.359375 -2.703125 C 4.617188 -2.609375 4.878906 -2.597656 5.140625 -2.671875 C 5.390625 -2.734375 5.613281 -2.875 5.8125 -3.09375 C 5.988281 -3.289062 6.078125 -3.554688 6.078125 -3.890625 L 6.078125 -16.21875 C 6.078125 -16.40625 6.148438 -16.566406 6.296875 -16.703125 C 6.410156 -16.828125 6.570312 -16.890625 6.78125 -16.890625 L 8.015625 -16.890625 C 8.203125 -16.890625 8.363281 -16.828125 8.5 -16.703125 C 8.625 -16.566406 8.6875 -16.40625 8.6875 -16.21875 Z M 8.6875 -3.875 "/></g></g></g></g><g clip-path="url(#9542212843)"><g fill="#214e34" fill-opacity="1"><g transform="translate(33.536113, 17.604338)"><g><path d="M 10.53125 0 C 10.207031 0 9.992188 -0.164062 9.890625 -0.5 C 9.835938 -0.675781 9.773438 -0.925781 9.703125 -1.25 C 9.609375 -1.550781 9.492188 -1.972656 9.359375 -2.515625 C 9.253906 -2.847656 9.03125 -3.015625 8.6875 -3.015625 L 5 -3.015625 C 4.664062 -3.015625 4.441406 -2.847656 4.328125 -2.515625 C 4.222656 -2.097656 4.132812 -1.722656 4.0625 -1.390625 C 3.96875 -1.046875 3.878906 -0.75 3.796875 -0.5 C 3.691406 -0.164062 3.476562 0 3.15625 0 L 1.84375 0 C 1.625 0 1.445312 -0.09375 1.3125 -0.28125 C 1.175781 -0.445312 1.140625 -0.640625 1.203125 -0.859375 C 1.347656 -1.421875 1.539062 -2.140625 1.78125 -3.015625 C 2.007812 -3.878906 2.257812 -4.816406 2.53125 -5.828125 C 2.8125 -6.828125 3.097656 -7.863281 3.390625 -8.9375 C 3.660156 -10 3.925781 -11.015625 4.1875 -11.984375 C 4.4375 -12.929688 4.671875 -13.800781 4.890625 -14.59375 C 5.085938 -15.351562 5.25 -15.953125 5.375 -16.390625 C 5.40625 -16.535156 5.476562 -16.65625 5.59375 -16.75 C 5.71875 -16.84375 5.859375 -16.890625 6.015625 -16.890625 L 7.671875 -16.890625 C 7.828125 -16.890625 7.96875 -16.84375 8.09375 -16.75 C 8.21875 -16.65625 8.289062 -16.535156 8.3125 -16.390625 C 8.851562 -14.359375 9.320312 -12.617188 9.71875 -11.171875 C 10.101562 -9.734375 10.425781 -8.519531 10.6875 -7.53125 C 10.945312 -6.550781 11.164062 -5.757812 11.34375 -5.15625 C 11.488281 -4.5625 11.617188 -4.085938 11.734375 -3.734375 C 11.828125 -3.367188 11.90625 -3.09375 11.96875 -2.90625 C 12.007812 -2.707031 12.050781 -2.519531 12.09375 -2.34375 C 12.144531 -2.175781 12.203125 -1.988281 12.265625 -1.78125 C 12.304688 -1.5625 12.378906 -1.253906 12.484375 -0.859375 C 12.546875 -0.640625 12.507812 -0.445312 12.375 -0.28125 C 12.238281 -0.09375 12.0625 0 11.84375 0 Z M 5.390625 -6.46875 C 5.328125 -6.257812 5.367188 -6.070312 5.515625 -5.90625 C 5.648438 -5.71875 5.820312 -5.625 6.03125 -5.625 L 7.65625 -5.625 C 7.863281 -5.625 8.039062 -5.71875 8.1875 -5.90625 C 8.320312 -6.070312 8.359375 -6.257812 8.296875 -6.46875 C 8.171875 -6.90625 8.046875 -7.367188 7.921875 -7.859375 C 7.785156 -8.347656 7.640625 -8.867188 7.484375 -9.421875 C 7.441406 -9.597656 7.359375 -9.726562 7.234375 -9.8125 C 7.109375 -9.894531 6.976562 -9.9375 6.84375 -9.9375 C 6.707031 -9.9375 6.578125 -9.894531 6.453125 -9.8125 C 6.328125 -9.726562 6.242188 -9.597656 6.203125 -9.421875 C 6.066406 -8.929688 5.9375 -8.441406 5.8125 -7.953125 C 5.664062 -7.460938 5.523438 -6.96875 5.390625 -6.46875 Z M 5.390625 -6.46875 "/></g></g></g></g><g fill="#214e34" fill-opacity="1"><g transform="translate(47.220961, 17.604338)"><g/></g></g><g clip-path="url(#4b956fffed)"><g fill="#214e34" fill-opacity="1"><g transform="translate(54.132503, 17.604338)"><g><path d="M 11.828125 -16.890625 C 12.035156 -16.890625 12.210938 -16.796875 12.359375 -16.609375 C 12.472656 -16.441406 12.507812 -16.253906 12.46875 -16.046875 C 12.363281 -15.640625 12.285156 -15.332031 12.234375 -15.125 C 12.171875 -14.90625 12.117188 -14.710938 12.078125 -14.546875 C 12.023438 -14.378906 11.976562 -14.203125 11.9375 -14.015625 C 11.875 -13.816406 11.796875 -13.539062 11.703125 -13.1875 C 11.597656 -12.8125 11.46875 -12.328125 11.3125 -11.734375 C 11.144531 -11.128906 10.929688 -10.335938 10.671875 -9.359375 C 10.410156 -8.367188 10.085938 -7.15625 9.703125 -5.71875 C 9.304688 -4.269531 8.835938 -2.53125 8.296875 -0.5 C 8.265625 -0.351562 8.1875 -0.234375 8.0625 -0.140625 C 7.9375 -0.046875 7.800781 0 7.65625 0 L 6 0 C 5.84375 0 5.703125 -0.046875 5.578125 -0.140625 C 5.453125 -0.234375 5.375 -0.351562 5.34375 -0.5 C 5.238281 -0.9375 5.078125 -1.546875 4.859375 -2.328125 C 4.648438 -3.097656 4.421875 -3.96875 4.171875 -4.9375 C 3.910156 -5.882812 3.640625 -6.894531 3.359375 -7.96875 C 3.066406 -9.03125 2.785156 -10.066406 2.515625 -11.078125 C 2.234375 -12.078125 1.976562 -13.015625 1.75 -13.890625 C 1.519531 -14.753906 1.328125 -15.472656 1.171875 -16.046875 C 1.128906 -16.273438 1.171875 -16.460938 1.296875 -16.609375 C 1.429688 -16.796875 1.609375 -16.890625 1.828125 -16.890625 L 3.109375 -16.890625 C 3.453125 -16.890625 3.675781 -16.722656 3.78125 -16.390625 C 3.90625 -15.941406 4.085938 -15.269531 4.328125 -14.375 C 4.554688 -13.488281 4.8125 -12.539062 5.09375 -11.53125 C 5.375 -10.5 5.644531 -9.488281 5.90625 -8.5 C 6.144531 -7.519531 6.347656 -6.722656 6.515625 -6.109375 C 6.566406 -5.953125 6.671875 -5.875 6.828125 -5.875 C 6.972656 -5.875 7.0625 -5.953125 7.09375 -6.109375 C 7.207031 -6.523438 7.347656 -7.023438 7.515625 -7.609375 C 7.671875 -8.191406 7.835938 -8.8125 8.015625 -9.46875 C 8.191406 -10.132812 8.367188 -10.8125 8.546875 -11.5 C 8.734375 -12.175781 8.910156 -12.828125 9.078125 -13.453125 C 9.242188 -14.085938 9.398438 -14.660156 9.546875 -15.171875 C 9.679688 -15.671875 9.785156 -16.078125 9.859375 -16.390625 C 9.972656 -16.722656 10.195312 -16.890625 10.53125 -16.890625 Z M 11.828125 -16.890625 "/></g></g></g></g><g clip-path="url(#668068510e)"><g fill="#214e34" fill-opacity="1"><g transform="translate(67.77128, 17.604338)"><g><path d="M 10.296875 -16.890625 C 10.484375 -16.890625 10.644531 -16.828125 10.78125 -16.703125 C 10.90625 -16.566406 10.96875 -16.40625 10.96875 -16.21875 L 10.96875 -4.90625 C 10.96875 -4.226562 10.847656 -3.59375 10.609375 -3 C 10.335938 -2.394531 9.984375 -1.867188 9.546875 -1.421875 C 9.097656 -0.984375 8.570312 -0.640625 7.96875 -0.390625 C 7.375 -0.128906 6.738281 0 6.0625 0 C 5.382812 0 4.753906 -0.128906 4.171875 -0.390625 C 3.566406 -0.648438 3.046875 -1.003906 2.609375 -1.453125 C 2.160156 -1.898438 1.804688 -2.421875 1.546875 -3.015625 C 1.285156 -3.597656 1.15625 -4.226562 1.15625 -4.90625 L 1.15625 -16.21875 C 1.15625 -16.40625 1.222656 -16.566406 1.359375 -16.703125 C 1.484375 -16.828125 1.640625 -16.890625 1.828125 -16.890625 L 3.0625 -16.890625 C 3.257812 -16.890625 3.429688 -16.828125 3.578125 -16.703125 C 3.691406 -16.566406 3.75 -16.40625 3.75 -16.21875 L 3.75 -4.984375 C 3.75 -4.660156 3.8125 -4.351562 3.9375 -4.0625 C 4.0625 -3.769531 4.234375 -3.515625 4.453125 -3.296875 C 4.660156 -3.078125 4.910156 -2.90625 5.203125 -2.78125 C 5.492188 -2.664062 5.800781 -2.609375 6.125 -2.609375 C 6.757812 -2.609375 7.289062 -2.820312 7.71875 -3.25 C 8.144531 -3.675781 8.359375 -4.207031 8.359375 -4.84375 L 8.359375 -16.21875 C 8.359375 -16.40625 8.429688 -16.566406 8.578125 -16.703125 C 8.710938 -16.828125 8.875 -16.890625 9.0625 -16.890625 Z M 10.296875 -16.890625 "/></g></g></g></g></g></g></svg>