<svg xmlns="http://www.w3.org/2000/svg" xmlns:xlink="http://www.w3.org/1999/xlink" width="150" zoomAndPan="magnify" viewBox="0 0 112.5 44.999999" height="60" preserveAspectRatio="xMidYMid meet" version="1.0"><defs><g/><clipPath id="198563ba11"><path d="M 0 0.0976562 L 112.003906 0.0976562 L 112.003906 44.898438 L 0 44.898438 Z M 0 0.0976562 " clip-rule="nonzero"/></clipPath><clipPath id="711e090816"><path d="M 2 0.136719 L 16 0.136719 L 16 22 L 2 22 Z M 2 0.136719 " clip-rule="nonzero"/></clipPath><clipPath id="da5dcdaac2"><path d="M 18 0.136719 L 29 0.136719 L 29 22 L 18 22 Z M 18 0.136719 " clip-rule="nonzero"/></clipPath><clipPath id="cd484d2638"><path d="M 31 0.136719 L 41 0.136719 L 41 22 L 31 22 Z M 31 0.136719 " clip-rule="nonzero"/></clipPath><clipPath id="a129087b6e"><path d="M 43 0.136719 L 58 0.136719 L 58 22 L 43 22 Z M 43 0.136719 " clip-rule="nonzero"/></clipPath><clipPath id="953fa68ed9"><path d="M 68 0.136719 L 83 0.136719 L 83 22 L 68 22 Z M 68 0.136719 " clip-rule="nonzero"/></clipPath><clipPath id="5f0a24c14b"><path d="M 85 0.136719 L 98 0.136719 L 98 22 L 85 22 Z M 85 0.136719 " clip-rule="nonzero"/></clipPath><clipPath id="42d2a7c89c"><rect x="0" width="100" y="0" height="25"/></clipPath></defs><g clip-path="url(#198563ba11)"><path fill="#ffffff" d="M 0 0.0976562 L 112.003906 0.0976562 L 112.003906 44.902344 L 0 44.902344 Z M 0 0.0976562 " fill-opacity="1" fill-rule="nonzero"/><path fill="#f1f9f4" d="M 0 0.0976562 L 112.003906 0.0976562 L 112.003906 44.902344 L 0 44.902344 Z M 0 0.0976562 " fill-opacity="1" fill-rule="nonzero"/></g><g transform="matrix(1, 0, 0, 1, 6, 10)"><g clip-path="url(#42d2a7c89c)"><g clip-path="url(#711e090816)"><g fill="#214e34" fill-opacity="1"><g transform="translate(1.112433, 21.500135)"><g><path d="M 4.609375 -20.703125 C 6.128906 -20.703125 7.5 -20.425781 8.71875 -19.875 C 9.945312 -19.332031 10.992188 -18.597656 11.859375 -17.671875 C 12.703125 -16.734375 13.359375 -15.644531 13.828125 -14.40625 C 14.285156 -13.144531 14.515625 -11.796875 14.515625 -10.359375 C 14.515625 -8.929688 14.285156 -7.597656 13.828125 -6.359375 C 13.359375 -5.097656 12.703125 -3.992188 11.859375 -3.046875 C 10.992188 -2.109375 9.945312 -1.363281 8.71875 -0.8125 C 7.5 -0.269531 6.128906 0 4.609375 0 L 2.234375 0 C 2.003906 0 1.816406 -0.0820312 1.671875 -0.25 C 1.492188 -0.40625 1.40625 -0.59375 1.40625 -0.8125 L 1.40625 -19.875 C 1.40625 -20.101562 1.492188 -20.300781 1.671875 -20.46875 C 1.816406 -20.625 2.003906 -20.703125 2.234375 -20.703125 Z M 4.609375 -4.0625 C 4.609375 -3.800781 4.703125 -3.59375 4.890625 -3.4375 C 5.054688 -3.269531 5.269531 -3.207031 5.53125 -3.25 C 6.4375 -3.363281 7.238281 -3.625 7.9375 -4.03125 C 8.632812 -4.445312 9.21875 -4.976562 9.6875 -5.625 C 10.15625 -6.238281 10.507812 -6.960938 10.75 -7.796875 C 10.976562 -8.597656 11.09375 -9.453125 11.09375 -10.359375 C 11.09375 -11.265625 10.976562 -12.128906 10.75 -12.953125 C 10.507812 -13.765625 10.15625 -14.492188 9.6875 -15.140625 C 9.21875 -15.753906 8.632812 -16.269531 7.9375 -16.6875 C 7.238281 -17.101562 6.4375 -17.367188 5.53125 -17.484375 C 5.269531 -17.515625 5.054688 -17.445312 4.890625 -17.28125 C 4.703125 -17.113281 4.609375 -16.90625 4.609375 -16.65625 Z M 4.609375 -4.0625 "/></g></g></g></g><g clip-path="url(#da5dcdaac2)"><g fill="#214e34" fill-opacity="1"><g transform="translate(17.035818, 21.500135)"><g><path d="M 11.578125 -18.328125 C 11.578125 -18.097656 11.5 -17.910156 11.34375 -17.765625 C 11.175781 -17.585938 10.976562 -17.5 10.75 -17.5 L 5.421875 -17.5 C 5.191406 -17.5 5.003906 -17.425781 4.859375 -17.28125 C 4.691406 -17.113281 4.609375 -16.914062 4.609375 -16.6875 L 4.609375 -15 C 4.609375 -14.769531 4.691406 -14.578125 4.859375 -14.421875 C 5.003906 -14.253906 5.191406 -14.171875 5.421875 -14.171875 L 8.953125 -14.171875 C 9.191406 -14.171875 9.398438 -14.097656 9.578125 -13.953125 C 9.722656 -13.773438 9.796875 -13.578125 9.796875 -13.359375 L 9.796875 -11.828125 C 9.796875 -11.597656 9.722656 -11.398438 9.578125 -11.234375 C 9.398438 -11.066406 9.191406 -10.984375 8.953125 -10.984375 L 5.421875 -10.984375 C 5.191406 -10.984375 5.003906 -10.90625 4.859375 -10.75 C 4.691406 -10.582031 4.609375 -10.390625 4.609375 -10.171875 L 4.609375 -4.015625 C 4.609375 -3.785156 4.691406 -3.59375 4.859375 -3.4375 C 5.003906 -3.269531 5.191406 -3.1875 5.421875 -3.1875 L 10.75 -3.1875 C 10.976562 -3.1875 11.175781 -3.113281 11.34375 -2.96875 C 11.5 -2.789062 11.578125 -2.59375 11.578125 -2.375 L 11.578125 -0.8125 C 11.578125 -0.59375 11.5 -0.40625 11.34375 -0.25 C 11.175781 -0.0820312 10.976562 0 10.75 0 L 2.234375 0 C 2.003906 0 1.816406 -0.0820312 1.671875 -0.25 C 1.492188 -0.40625 1.40625 -0.59375 1.40625 -0.8125 L 1.40625 -19.875 C 1.40625 -20.101562 1.492188 -20.300781 1.671875 -20.46875 C 1.816406 -20.625 2.003906 -20.703125 2.234375 -20.703125 L 10.75 -20.703125 C 10.976562 -20.703125 11.175781 -20.625 11.34375 -20.46875 C 11.5 -20.300781 11.578125 -20.101562 11.578125 -19.875 Z M 11.578125 -18.328125 "/></g></g></g></g><g clip-path="url(#cd484d2638)"><g fill="#214e34" fill-opacity="1"><g transform="translate(30.022978, 21.500135)"><g><path d="M 10.640625 -4.75 C 10.640625 -3.863281 10.460938 -3.097656 10.109375 -2.453125 C 9.734375 -1.796875 9.265625 -1.269531 8.703125 -0.875 C 8.117188 -0.476562 7.476562 -0.210938 6.78125 -0.078125 C 6.082031 0.046875 5.394531 0.0234375 4.71875 -0.140625 C 4.039062 -0.285156 3.421875 -0.585938 2.859375 -1.046875 C 2.265625 -1.472656 1.8125 -2.078125 1.5 -2.859375 C 1.40625 -3.097656 1.421875 -3.332031 1.546875 -3.5625 C 1.660156 -3.78125 1.851562 -3.910156 2.125 -3.953125 L 3.703125 -4.265625 C 4.054688 -4.316406 4.335938 -4.191406 4.546875 -3.890625 C 4.734375 -3.585938 5 -3.390625 5.34375 -3.296875 C 5.65625 -3.191406 5.972656 -3.1875 6.296875 -3.28125 C 6.597656 -3.351562 6.867188 -3.519531 7.109375 -3.78125 C 7.335938 -4.03125 7.453125 -4.359375 7.453125 -4.765625 L 7.453125 -19.875 C 7.453125 -20.101562 7.535156 -20.300781 7.703125 -20.46875 C 7.859375 -20.625 8.054688 -20.703125 8.296875 -20.703125 L 9.828125 -20.703125 C 10.054688 -20.703125 10.253906 -20.625 10.421875 -20.46875 C 10.566406 -20.300781 10.640625 -20.101562 10.640625 -19.875 Z M 10.640625 -4.75 "/></g></g></g></g><g clip-path="url(#a129087b6e)"><g fill="#214e34" fill-opacity="1"><g transform="translate(42.07845, 21.500135)"><g><path d="M 12.90625 0 C 12.507812 0 12.242188 -0.207031 12.109375 -0.625 C 12.054688 -0.832031 11.984375 -1.132812 11.890625 -1.53125 C 11.773438 -1.90625 11.632812 -2.421875 11.46875 -3.078125 C 11.332031 -3.492188 11.054688 -3.703125 10.640625 -3.703125 L 6.125 -3.703125 C 5.707031 -3.703125 5.4375 -3.492188 5.3125 -3.078125 C 5.175781 -2.566406 5.0625 -2.101562 4.96875 -1.6875 C 4.851562 -1.28125 4.75 -0.925781 4.65625 -0.625 C 4.53125 -0.207031 4.269531 0 3.875 0 L 2.265625 0 C 1.992188 0 1.773438 -0.113281 1.609375 -0.34375 C 1.441406 -0.550781 1.394531 -0.785156 1.46875 -1.046875 C 1.65625 -1.742188 1.890625 -2.628906 2.171875 -3.703125 C 2.453125 -4.753906 2.765625 -5.898438 3.109375 -7.140625 C 3.441406 -8.367188 3.789062 -9.640625 4.15625 -10.953125 C 4.488281 -12.253906 4.816406 -13.5 5.140625 -14.6875 C 5.441406 -15.851562 5.722656 -16.914062 5.984375 -17.875 C 6.234375 -18.8125 6.429688 -19.546875 6.578125 -20.078125 C 6.617188 -20.265625 6.710938 -20.414062 6.859375 -20.53125 C 7.015625 -20.644531 7.1875 -20.703125 7.375 -20.703125 L 9.40625 -20.703125 C 9.59375 -20.703125 9.757812 -20.644531 9.90625 -20.53125 C 10.0625 -20.414062 10.15625 -20.265625 10.1875 -20.078125 C 10.851562 -17.585938 11.429688 -15.457031 11.921875 -13.6875 C 12.390625 -11.925781 12.78125 -10.441406 13.09375 -9.234375 C 13.414062 -8.023438 13.679688 -7.054688 13.890625 -6.328125 C 14.078125 -5.585938 14.238281 -5.003906 14.375 -4.578125 C 14.488281 -4.117188 14.582031 -3.78125 14.65625 -3.5625 C 14.707031 -3.3125 14.765625 -3.082031 14.828125 -2.875 C 14.878906 -2.664062 14.941406 -2.429688 15.015625 -2.171875 C 15.078125 -1.910156 15.171875 -1.535156 15.296875 -1.046875 C 15.378906 -0.785156 15.332031 -0.550781 15.15625 -0.34375 C 14.988281 -0.113281 14.773438 0 14.515625 0 Z M 6.609375 -7.9375 C 6.535156 -7.664062 6.582031 -7.429688 6.75 -7.234375 C 6.914062 -7.003906 7.128906 -6.890625 7.390625 -6.890625 L 9.375 -6.890625 C 9.632812 -6.890625 9.847656 -7.003906 10.015625 -7.234375 C 10.191406 -7.429688 10.242188 -7.664062 10.171875 -7.9375 C 10.015625 -8.457031 9.863281 -9.019531 9.71875 -9.625 C 9.539062 -10.226562 9.359375 -10.867188 9.171875 -11.546875 C 9.117188 -11.753906 9.015625 -11.914062 8.859375 -12.03125 C 8.710938 -12.125 8.554688 -12.171875 8.390625 -12.171875 C 8.210938 -12.171875 8.050781 -12.125 7.90625 -12.03125 C 7.757812 -11.914062 7.65625 -11.753906 7.59375 -11.546875 C 7.425781 -10.941406 7.265625 -10.335938 7.109375 -9.734375 C 6.941406 -9.140625 6.773438 -8.539062 6.609375 -7.9375 Z M 6.609375 -7.9375 "/></g></g></g></g><g fill="#214e34" fill-opacity="1"><g transform="translate(58.848822, 21.500135)"><g/></g></g><g clip-path="url(#953fa68ed9)"><g fill="#214e34" fill-opacity="1"><g transform="translate(67.318709, 21.500135)"><g><path d="M 14.484375 -20.703125 C 14.742188 -20.703125 14.960938 -20.585938 15.140625 -20.359375 C 15.285156 -20.148438 15.332031 -19.914062 15.28125 -19.65625 C 15.144531 -19.164062 15.050781 -18.785156 15 -18.515625 C 14.914062 -18.253906 14.847656 -18.019531 14.796875 -17.8125 C 14.734375 -17.601562 14.675781 -17.390625 14.625 -17.171875 C 14.550781 -16.921875 14.457031 -16.582031 14.34375 -16.15625 C 14.207031 -15.695312 14.046875 -15.101562 13.859375 -14.375 C 13.648438 -13.632812 13.390625 -12.664062 13.078125 -11.46875 C 12.753906 -10.257812 12.359375 -8.769531 11.890625 -7 C 11.398438 -5.226562 10.828125 -3.101562 10.171875 -0.625 C 10.128906 -0.4375 10.03125 -0.285156 9.875 -0.171875 C 9.726562 -0.0546875 9.5625 0 9.375 0 L 7.34375 0 C 7.15625 0 6.984375 -0.0546875 6.828125 -0.171875 C 6.679688 -0.285156 6.585938 -0.4375 6.546875 -0.625 C 6.421875 -1.144531 6.222656 -1.890625 5.953125 -2.859375 C 5.691406 -3.796875 5.410156 -4.859375 5.109375 -6.046875 C 4.785156 -7.210938 4.457031 -8.453125 4.125 -9.765625 C 3.757812 -11.066406 3.410156 -12.335938 3.078125 -13.578125 C 2.734375 -14.804688 2.421875 -15.957031 2.140625 -17.03125 C 1.859375 -18.082031 1.625 -18.957031 1.4375 -19.65625 C 1.382812 -19.9375 1.429688 -20.171875 1.578125 -20.359375 C 1.742188 -20.585938 1.960938 -20.703125 2.234375 -20.703125 L 3.8125 -20.703125 C 4.226562 -20.703125 4.5 -20.492188 4.625 -20.078125 C 4.78125 -19.523438 5.007812 -18.707031 5.3125 -17.625 C 5.59375 -16.53125 5.898438 -15.363281 6.234375 -14.125 C 6.578125 -12.851562 6.910156 -11.617188 7.234375 -10.421875 C 7.535156 -9.210938 7.785156 -8.234375 7.984375 -7.484375 C 8.046875 -7.296875 8.171875 -7.203125 8.359375 -7.203125 C 8.546875 -7.203125 8.660156 -7.296875 8.703125 -7.484375 C 8.828125 -7.992188 8.992188 -8.601562 9.203125 -9.3125 C 9.390625 -10.03125 9.597656 -10.796875 9.828125 -11.609375 C 10.035156 -12.410156 10.25 -13.238281 10.46875 -14.09375 C 10.695312 -14.914062 10.914062 -15.710938 11.125 -16.484375 C 11.332031 -17.253906 11.519531 -17.953125 11.6875 -18.578125 C 11.851562 -19.203125 11.984375 -19.703125 12.078125 -20.078125 C 12.210938 -20.492188 12.488281 -20.703125 12.90625 -20.703125 Z M 14.484375 -20.703125 "/></g></g></g></g><g clip-path="url(#5f0a24c14b)"><g fill="#214e34" fill-opacity="1"><g transform="translate(84.032623, 21.500135)"><g><path d="M 12.625 -20.703125 C 12.84375 -20.703125 13.039062 -20.625 13.21875 -20.46875 C 13.363281 -20.300781 13.4375 -20.101562 13.4375 -19.875 L 13.4375 -6.015625 C 13.4375 -5.179688 13.285156 -4.398438 12.984375 -3.671875 C 12.671875 -2.929688 12.238281 -2.289062 11.6875 -1.75 C 11.144531 -1.207031 10.503906 -0.785156 9.765625 -0.484375 C 9.035156 -0.160156 8.253906 0 7.421875 0 C 6.597656 0 5.828125 -0.160156 5.109375 -0.484375 C 4.378906 -0.796875 3.738281 -1.226562 3.1875 -1.78125 C 2.644531 -2.320312 2.210938 -2.960938 1.890625 -3.703125 C 1.566406 -4.410156 1.40625 -5.179688 1.40625 -6.015625 L 1.40625 -19.875 C 1.40625 -20.101562 1.492188 -20.300781 1.671875 -20.46875 C 1.816406 -20.625 2.003906 -20.703125 2.234375 -20.703125 L 3.75 -20.703125 C 4 -20.703125 4.207031 -20.625 4.375 -20.46875 C 4.53125 -20.300781 4.609375 -20.101562 4.609375 -19.875 L 4.609375 -6.09375 C 4.609375 -5.695312 4.679688 -5.320312 4.828125 -4.96875 C 4.972656 -4.613281 5.179688 -4.300781 5.453125 -4.03125 C 5.710938 -3.769531 6.019531 -3.566406 6.375 -3.421875 C 6.738281 -3.265625 7.117188 -3.1875 7.515625 -3.1875 C 8.285156 -3.1875 8.929688 -3.453125 9.453125 -3.984375 C 9.984375 -4.503906 10.25 -5.148438 10.25 -5.921875 L 10.25 -19.875 C 10.25 -20.101562 10.332031 -20.300781 10.5 -20.46875 C 10.664062 -20.625 10.863281 -20.703125 11.09375 -20.703125 Z M 12.625 -20.703125 "/></g></g></g></g></g></g></svg>